<svg width="87" height="84" viewBox="0 0 87 84" fill="none" xmlns="http://www.w3.org/2000/svg">
<path d="M86.7559 82.999L43.3984 64.0088L0.0410156 82.999L43.3984 0L86.7559 82.999ZM20.7432 64.9482L43.3955 45.0391L66.0479 64.9482L43.3955 21.5908L20.7432 64.9482Z" fill="url(#paint0_linear_1631_3684)"/>
<path d="M43.3929 44.9463L86.7507 82.9949L43.3929 64.4943L0.0351562 82.9949L43.3929 44.9463Z" fill="url(#paint1_linear_1631_3684)"/>
<path d="M43.3926 21.5938L43.3906 21.5908L20.7393 64.9482L43.3906 45.0391L43.3926 45.04V64.0088L0.0351562 82.999L43.3926 0V21.5938Z" fill="url(#paint2_linear_1631_3684)"/>
<path d="M43.3965 44.9541V64.5L43.3926 64.499L0.0351562 83L43.3926 44.9512L43.3965 44.9541Z" fill="#12120F"/>
<path d="M43.3929 53.9746L66.3991 65.1237L86.7507 82.9978L43.3929 64.4971L0.0351562 82.9978L20.3868 65.1237L43.3929 53.9746Z" fill="url(#paint3_linear_1631_3684)"/>
<path d="M43.4014 28.8418L30.8799 52.7959L24.2871 58.1934L43.4014 21.5879V28.8418Z" fill="url(#paint4_linear_1631_3684)"/>
<path d="M43.3916 28.8457L55.9092 52.792L62.502 58.1895L43.3916 21.5908V28.8457Z" fill="url(#paint5_linear_1631_3684)"/>
<path d="M43.4389 21.6149C43.4083 21.5988 43.3776 21.5828 43.3469 21.5668C42.7523 22.6922 42.1579 23.8178 41.5638 24.9436C36.2168 35.0753 30.8906 45.2178 25.585 55.3711C23.9588 58.4832 22.3346 61.5963 20.7122 64.7105L20.7422 64.6724C14.7746 69.9168 8.81441 75.1696 2.86162 80.4309C1.90786 81.2739 0.954295 82.1171 0.000914159 82.9605C0.0237422 82.9865 0.0465703 83.0126 0.0693983 83.0386C1.03039 82.2039 1.99118 81.369 2.95179 80.5338C8.94733 75.3213 14.9354 70.1003 20.9162 64.8708L20.9461 64.8327C22.5762 61.7226 24.2044 58.6115 25.8306 55.4994C31.1361 45.3461 36.4209 35.1819 41.685 25.0069C42.2699 23.8764 42.8546 22.7457 43.4389 21.6149Z" fill="url(#paint6_linear_1631_3684)"/>
<defs>
<linearGradient id="paint0_linear_1631_3684" x1="43.3984" y1="-1.28114e-06" x2="84.5442" y2="82.9988" gradientUnits="userSpaceOnUse">
<stop stop-color="#FFFEEC"/>
<stop offset="0.0896143" stop-color="#FCFBD9"/>
<stop offset="0.270135" stop-color="#F5C6A2"/>
<stop offset="0.618143" stop-color="#251E15"/>
<stop offset="0.698935" stop-color="#080707"/>
</linearGradient>
<linearGradient id="paint1_linear_1631_3684" x1="45.0741" y1="48.1318" x2="52.8608" y2="61.4045" gradientUnits="userSpaceOnUse">
<stop stop-color="#F1C5AA"/>
<stop offset="1" stop-color="#FFE4C1"/>
</linearGradient>
<linearGradient id="paint2_linear_1631_3684" x1="43.3926" y1="0" x2="43.3926" y2="82.999" gradientUnits="userSpaceOnUse">
<stop stop-color="#87745E"/>
<stop offset="0.273092" stop-color="#6E5E4E"/>
<stop offset="0.676932" stop-color="#413C37"/>
<stop offset="1" stop-color="#444545"/>
</linearGradient>
<linearGradient id="paint3_linear_1631_3684" x1="83.7422" y1="81.405" x2="1.62789" y2="81.8475" gradientUnits="userSpaceOnUse">
<stop stop-color="#016B72"/>
<stop offset="1" stop-color="#000409"/>
</linearGradient>
<linearGradient id="paint4_linear_1631_3684" x1="33.8442" y1="21.5879" x2="33.8442" y2="58.1934" gradientUnits="userSpaceOnUse">
<stop stop-color="#524130"/>
<stop offset="1"/>
</linearGradient>
<linearGradient id="paint5_linear_1631_3684" x1="44.2763" y1="22.6525" x2="62.5022" y2="58.2192" gradientUnits="userSpaceOnUse">
<stop stop-color="#001A21"/>
<stop offset="0.498866" stop-color="#01474D"/>
<stop offset="1" stop-color="#009EAF"/>
</linearGradient>
<linearGradient id="paint6_linear_1631_3684" x1="43.3929" y1="21.5908" x2="0.74304" y2="82.9996" gradientUnits="userSpaceOnUse">
<stop stop-color="#FEFDE6"/>
<stop offset="0.618975" stop-color="#888888"/>
<stop offset="1" stop-color="#FEFDE6"/>
</linearGradient>
</defs>
</svg>
