<svg width="87" height="84" viewBox="0 0 87 84" fill="none" xmlns="http://www.w3.org/2000/svg">
<path d="M86.7939 83.042L43.4141 64.042L0.0332031 83.042L43.4141 0L86.7939 83.042ZM20.75 64.9814L43.4141 45.0625L66.0771 64.9814L43.4141 21.6016L20.75 64.9814Z" fill="url(#paint0_linear_1589_2219)"/>
<path d="M43.4153 44.974L86.7953 83.0422L43.4153 64.5321L0.0351562 83.0422L43.4153 44.974Z" fill="url(#paint1_linear_1589_2219)"/>
<path d="M43.4131 21.6026L20.75 64.9815L43.4131 45.0626V64.0421L0.0332031 83.0421L43.4131 0.0010376V21.6026Z" fill="url(#paint2_linear_1589_2219)"/>
<path d="M43.4121 64.5316L0.0332031 83.0424L43.4121 44.975V64.5316Z" fill="#12120F"/>
<path d="M43.4153 54.004L66.4333 65.1589L86.7953 83.0421L43.4153 64.532L0.0351562 83.0421L20.3972 65.1589L43.4153 54.004Z" fill="url(#paint3_linear_1589_2219)"/>
<path d="M43.4131 28.8613L30.8877 52.8232L24.291 58.2236L43.4131 21.6025V28.8613Z" fill="url(#paint4_linear_1589_2219)"/>
<path d="M43.4131 28.8617L55.9385 52.8236L62.5352 58.224L43.4131 21.6029V28.8617Z" fill="url(#paint5_linear_1589_2219)"/>
<path d="M43.4613 21.6261C43.4306 21.6101 43.3999 21.594 43.3692 21.578C42.7743 22.704 42.1796 23.8302 41.5852 24.9565C36.2355 35.0934 30.9065 45.2412 25.5982 55.3997C23.9712 58.5134 22.3461 61.6282 20.7229 64.744L20.7529 64.7058C14.7822 69.9529 8.81893 75.2085 2.86308 80.4725C1.90883 81.3159 0.954768 82.1595 0.000896598 83.0033C0.0237364 83.0294 0.0465761 83.0555 0.0694159 83.0815C1.0309 82.2464 1.99219 81.411 2.9533 80.5754C8.95192 75.3602 14.9431 70.1365 20.9269 64.9043L20.9569 64.8662C22.5878 61.7545 24.2168 58.6418 25.8439 55.5281C31.1521 45.3695 36.4397 35.2001 41.7065 25.0199C42.2917 23.8888 42.8766 22.7575 43.4613 21.6261Z" fill="url(#paint6_linear_1589_2219)"/>
<defs>
<linearGradient id="paint0_linear_1589_2219" x1="43.4136" y1="-1.2818e-06" x2="84.5803" y2="83.0422" gradientUnits="userSpaceOnUse">
<stop stop-color="white"/>
<stop offset="0.180034" stop-color="#F1F1F1"/>
<stop offset="0.375641" stop-color="#ABABAB"/>
<stop offset="0.618143" stop-color="#212121"/>
<stop offset="0.698935" stop-color="#080707"/>
</linearGradient>
<linearGradient id="paint1_linear_1589_2219" x1="45.0973" y1="48.1611" x2="52.888" y2="61.4407" gradientUnits="userSpaceOnUse">
<stop stop-color="white"/>
<stop offset="1" stop-color="#DFDFDF"/>
</linearGradient>
<linearGradient id="paint2_linear_1589_2219" x1="43.4131" y1="0.0010376" x2="43.4131" y2="83.0421" gradientUnits="userSpaceOnUse">
<stop stop-color="#747474"/>
<stop offset="0.273092" stop-color="#686868"/>
<stop offset="0.676932" stop-color="#454545"/>
<stop offset="1" stop-color="#4D4D4D"/>
</linearGradient>
<linearGradient id="paint3_linear_1589_2219" x1="83.7853" y1="81.4486" x2="1.62871" y2="81.8912" gradientUnits="userSpaceOnUse">
<stop stop-color="#737373"/>
<stop offset="1" stop-color="#000409"/>
</linearGradient>
<linearGradient id="paint4_linear_1589_2219" x1="33.8521" y1="21.6025" x2="33.8521" y2="58.2236" gradientUnits="userSpaceOnUse">
<stop stop-color="#535353"/>
<stop offset="1"/>
</linearGradient>
<linearGradient id="paint5_linear_1589_2219" x1="44.2984" y1="22.6653" x2="62.5354" y2="58.2538" gradientUnits="userSpaceOnUse">
<stop stop-color="#343434"/>
<stop offset="0.498866" stop-color="#6C6C6C"/>
<stop offset="1" stop-color="#747474"/>
</linearGradient>
<linearGradient id="paint6_linear_1589_2219" x1="43.4153" y1="21.602" x2="0.743403" y2="83.0424" gradientUnits="userSpaceOnUse">
<stop stop-color="#FEFDE6"/>
<stop offset="0.618975" stop-color="#888888"/>
<stop offset="1" stop-color="#FEFDE6"/>
</linearGradient>
</defs>
</svg>
