<svg width="203" height="41" viewBox="0 0 203 41" fill="none" xmlns="http://www.w3.org/2000/svg">
<path d="M41.8955 40.0854L20.9561 30.9145L0.015625 40.0854L20.9561 0.000427246L41.8955 40.0854ZM10.0156 31.3676L20.9551 21.7524L31.8955 31.3676L20.9551 10.4282L10.0156 31.3676Z" fill="url(#paint0_linear_1589_2175)"/>
<path d="M20.9557 21.7099L41.8957 40.0859L20.9557 31.1508L0.015625 40.0859L20.9557 21.7099Z" fill="url(#paint1_linear_1589_2175)"/>
<path d="M20.9561 10.4277L20.9551 10.4268L10.0156 31.3672L20.9551 21.752H20.9561V30.9141L0.015625 40.085L20.9561 0V10.4277Z" fill="url(#paint2_linear_1589_2175)"/>
<path d="M20.9561 31.1503L0.015625 40.0859L20.9561 21.7099V31.1503Z" fill="#12120F"/>
<path d="M20.9557 26.0688L32.0667 31.4534L41.8957 40.0858L20.9557 31.1507L0.015625 40.0858L9.84463 31.4534L20.9557 26.0688Z" fill="url(#paint3_linear_1589_2175)"/>
<path d="M20.9561 13.9302L14.9092 25.4985L11.7246 28.106L20.9561 10.4272V13.9302Z" fill="url(#paint4_linear_1589_2175)"/>
<path d="M20.9551 13.9323L27.001 25.4987L30.1855 28.1061L20.9551 10.4284V13.9323Z" fill="url(#paint5_linear_1589_2175)"/>
<path d="M20.9779 10.4396C20.9631 10.4319 20.9483 10.4241 20.9335 10.4164C20.6463 10.9599 20.3592 11.5035 20.0723 12.0472C17.4899 16.9404 14.9176 21.8388 12.3552 26.7425C11.5698 28.2455 10.7853 29.749 10.0018 31.2531L10.0163 31.2347C7.13419 33.7675 4.25565 36.3044 1.3807 38.8454C0.920067 39.2525 0.459532 39.6597 -0.000912521 40.0671C0.0101125 40.0797 0.0211375 40.0922 0.0321625 40.1048C0.496282 39.7017 0.960308 39.2984 1.42425 38.8951C4.31984 36.3776 7.21187 33.8561 10.1003 31.3305L10.1148 31.3121C10.9021 29.81 11.6884 28.3075 12.4738 26.8045C15.0361 21.9008 17.5885 16.9919 20.1308 12.0778C20.4133 11.5318 20.6957 10.9857 20.9779 10.4396Z" fill="url(#paint6_linear_1589_2175)"/>
<path d="M66.0266 8.18755C66.5942 7.8868 67.2985 8.1033 67.5993 8.67091L79.398 30.939L77.3419 32.0283L66.5642 11.6863L55.6311 32.0341L53.582 30.9331L65.5467 8.66506C65.652 8.46848 65.8147 8.29981 66.0266 8.18755Z" fill="white"/>
<path d="M93.055 30.2325L81.9417 9.61656H84.8945L94.773 28.4072L104.652 9.61656H107.564L96.491 30.2325H93.055Z" fill="white"/>
<path d="M124.58 30.2325V21.6425L112.984 9.61656H116.42L125.869 19.7098L135.318 9.61656H138.754L127.157 21.6425V30.2325H124.58Z" fill="white"/>
<path d="M145.851 9.61656H159.649C161.662 9.61656 163.282 9.70604 164.508 9.885C165.742 10.064 166.678 10.3727 167.313 10.8111C167.948 11.2496 168.378 11.8491 168.601 12.6096C168.825 13.3702 168.937 14.3321 168.937 15.4953V16.0322C168.937 17.106 168.807 18.0321 168.548 18.8105C168.297 19.5801 167.809 20.2064 167.085 20.6896C166.36 21.1638 165.286 21.4994 163.863 21.6962L168.346 30.2325H165.769L161.38 21.8841C161.201 21.8931 161.013 21.8976 160.817 21.8976C160.629 21.8976 160.432 21.8976 160.226 21.8976H148.428V30.2325H145.851V9.61656ZM148.428 19.6695H159.823C161.354 19.6695 162.557 19.6203 163.434 19.5219C164.32 19.4145 164.968 19.2311 165.38 18.9716C165.801 18.7121 166.069 18.3452 166.185 17.871C166.302 17.3968 166.36 16.7838 166.36 16.0322V15.4953C166.36 14.6453 166.279 13.9742 166.118 13.4821C165.957 12.9899 165.635 12.6275 165.152 12.3949C164.669 12.1622 163.948 12.0146 162.991 11.952C162.034 11.8804 160.754 11.8446 159.152 11.8446H148.428V19.6695Z" fill="white"/>
<path d="M174.853 30.2325L186.879 9.61656H190.315L202.341 30.2325H199.335L196.758 25.508H180.437L177.86 30.2325H174.853ZM181.725 23.3605H195.469L188.597 11.3346L181.725 23.3605Z" fill="white"/>
<defs>
<linearGradient id="paint0_linear_1589_2175" x1="20.9556" y1="0.000426627" x2="40.8271" y2="40.0854" gradientUnits="userSpaceOnUse">
<stop stop-color="white"/>
<stop offset="0.180034" stop-color="#F1F1F1"/>
<stop offset="0.375641" stop-color="#ABABAB"/>
<stop offset="0.618143" stop-color="#212121"/>
<stop offset="0.698935" stop-color="#080707"/>
</linearGradient>
<linearGradient id="paint1_linear_1589_2175" x1="21.7676" y1="23.2484" x2="25.5283" y2="29.6586" gradientUnits="userSpaceOnUse">
<stop stop-color="white"/>
<stop offset="1" stop-color="#DFDFDF"/>
</linearGradient>
<linearGradient id="paint2_linear_1589_2175" x1="20.9561" y1="0" x2="20.9561" y2="40.085" gradientUnits="userSpaceOnUse">
<stop stop-color="#747474"/>
<stop offset="0.273092" stop-color="#686868"/>
<stop offset="0.676932" stop-color="#454545"/>
<stop offset="1" stop-color="#4D4D4D"/>
</linearGradient>
<linearGradient id="paint3_linear_1589_2175" x1="40.4428" y1="39.3166" x2="0.784852" y2="39.5303" gradientUnits="userSpaceOnUse">
<stop stop-color="#737373"/>
<stop offset="1" stop-color="#000409"/>
</linearGradient>
<linearGradient id="paint4_linear_1589_2175" x1="16.3403" y1="10.4272" x2="16.3403" y2="28.106" gradientUnits="userSpaceOnUse">
<stop stop-color="#535353"/>
<stop offset="1"/>
</linearGradient>
<linearGradient id="paint5_linear_1589_2175" x1="21.3824" y1="10.9412" x2="30.1859" y2="28.1204" gradientUnits="userSpaceOnUse">
<stop stop-color="#343434"/>
<stop offset="0.498866" stop-color="#6C6C6C"/>
<stop offset="1" stop-color="#747474"/>
</linearGradient>
<linearGradient id="paint6_linear_1589_2175" x1="20.9557" y1="10.428" x2="0.357503" y2="40.0859" gradientUnits="userSpaceOnUse">
<stop stop-color="#FEFDE6"/>
<stop offset="0.618975" stop-color="#888888"/>
<stop offset="1" stop-color="#FEFDE6"/>
</linearGradient>
</defs>
</svg>
