<svg width="612" height="627" viewBox="0 0 612 627" fill="none" xmlns="http://www.w3.org/2000/svg">
<g clip-path="url(#clip0_1635_4142)">
<path d="M55.4082 -204.127L55.4082 -151.357H2.63867L2.63867 -204.127H55.4082ZM2.63867 -148.719H55.4082L55.4082 -95.9492H2.63867L2.63867 -148.719ZM58.0469 -148.719H110.816L110.816 -95.9492H58.0469L58.0469 -148.719ZM113.455 -148.719H166.225V-95.9492H113.455L113.455 -148.719ZM168.863 -148.719H221.633V-95.9492H168.863V-148.719ZM224.271 -148.719H277.043V-95.9492H224.271V-148.719ZM279.682 -148.719H332.451V-95.9492H279.682V-148.719ZM335.09 -148.719H387.859V-95.9492H335.09V-148.719ZM390.498 -148.719H443.268V-95.9492H390.498V-148.719ZM445.906 -148.719L498.676 -148.719V-95.9492L445.906 -95.9492V-148.719ZM501.314 -148.719H554.084V-95.9492H501.314V-148.719ZM556.723 -148.719H609.492V-95.9492H556.723V-148.719ZM612.131 -148.719H664.902V-95.9492H612.131V-148.719ZM667.541 -148.719H720.311V-95.9492H667.541V-148.719ZM722.949 -148.719H775.719V-95.9492H722.949V-148.719ZM778.357 -148.719H831.127V-95.9492H778.357V-148.719ZM2.63867 -93.3105H55.4082V-40.54H2.63867L2.63867 -93.3105ZM58.0469 -93.3105H110.816V-40.54H58.0469V-93.3105ZM113.455 -93.3105H166.225V-40.54H113.455V-93.3105ZM168.863 -93.3105H221.633V-40.54H168.863V-93.3105ZM224.271 -93.3105H277.043L277.043 -40.54H224.271V-93.3105ZM279.682 -93.3105H332.451L332.451 -40.54H279.682L279.682 -93.3105ZM335.09 -93.3105H387.859L387.859 -40.54H335.09L335.09 -93.3105ZM390.498 -93.3105H443.268L443.268 -40.54H390.498L390.498 -93.3105ZM445.906 -93.3105L498.676 -93.3105L498.676 -40.54L445.906 -40.54L445.906 -93.3105ZM501.314 -93.3105H554.084V-40.54H501.314L501.314 -93.3105ZM556.723 -93.3105H609.492V-40.54H556.723V-93.3105ZM612.131 -93.3105H664.902V-40.54H612.131V-93.3105ZM667.541 -93.3105H720.311V-40.54H667.541V-93.3105ZM722.949 -93.3105H775.719V-40.54H722.949V-93.3105ZM778.357 -93.3105H831.127V-40.54H778.357V-93.3105ZM2.63867 -37.9013H55.4082V14.8682H2.63867L2.63867 -37.9013ZM58.0469 -37.9013H110.816L110.816 14.8682H58.0469V-37.9013ZM113.455 -37.9013H166.225V14.8682H113.455L113.455 -37.9013ZM168.863 -37.9013H221.633V14.8682H168.863V-37.9013ZM224.271 -37.9013H277.043V14.8682H224.271V-37.9013ZM279.682 -37.9013H332.451V14.8682H279.682V-37.9013ZM335.09 -37.9013H387.859V14.8682H335.09V-37.9013ZM390.498 -37.9013H443.268V14.8682H390.498V-37.9013ZM445.906 -37.9013L498.676 -37.9013V14.8682L445.906 14.8682V-37.9013ZM501.314 -37.9013H554.084V14.8682H501.314V-37.9013ZM556.723 -37.9013H609.492V14.8682H556.723V-37.9013ZM612.131 -37.9013H664.902V14.8682H612.131V-37.9013ZM667.541 -37.9013H720.311V14.8682H667.541V-37.9013ZM722.949 -37.9013H775.719V14.8682H722.949V-37.9013ZM778.357 -37.9013H831.127V14.8682H778.357V-37.9013ZM2.63867 17.5069H55.4082L55.4082 70.2764H2.63867L2.63867 17.5069ZM58.0469 17.5069H110.816V70.2764H58.0469L58.0469 17.5069ZM113.455 17.5069H166.225L166.225 70.2764H113.455V17.5069ZM168.863 17.5069H221.633L221.633 70.2764H168.863L168.863 17.5069ZM224.271 17.5069H277.043V70.2764H224.271L224.271 17.5069ZM279.682 17.5069H332.451V70.2764H279.682V17.5069ZM335.09 17.5069H387.859V70.2764H335.09V17.5069ZM390.498 17.5069H443.268V70.2764H390.498V17.5069ZM445.906 17.5069L498.676 17.5069V70.2764L445.906 70.2764V17.5069ZM501.314 17.5069H554.084V70.2764H501.314V17.5069ZM556.723 17.5069H609.492V70.2764H556.723V17.5069ZM612.131 17.5069H664.902V70.2764H612.131V17.5069ZM667.541 17.5069H720.311V70.2764H667.541V17.5069ZM722.949 17.5069H775.719V70.2764H722.949V17.5069ZM778.357 17.5069H831.127V70.2764H778.357V17.5069ZM2.63867 72.9151H55.4082L55.4082 125.685H2.63867L2.63867 72.9151ZM58.0469 72.9151H110.816L110.816 125.685H58.0469L58.0469 72.9151ZM113.455 72.9151H166.225V125.685H113.455L113.455 72.9151ZM168.863 72.9151H221.633V125.685H168.863V72.9151ZM224.271 72.9151H277.043V125.685L224.271 125.685V72.9151ZM279.682 72.9151H332.451V125.685H279.682V72.9151ZM335.09 72.9151H387.859V125.685H335.09V72.9151ZM390.498 72.9151H443.268V125.685H390.498V72.9151ZM445.906 72.9151L498.676 72.9151V125.685H445.906V72.9151ZM501.314 72.9151H554.084V125.685H501.314V72.9151ZM556.723 72.9151H609.492V125.685H556.723V72.9151ZM612.131 72.9151H664.902V125.685H612.131V72.9151ZM667.541 72.9151H720.311V125.685L667.541 125.685V72.9151ZM722.949 72.9151H775.719V125.685H722.949V72.9151ZM778.357 72.9151H831.127V125.685H778.357V72.9151ZM2.63867 128.323H55.4082L55.4082 181.094H2.63867L2.63867 128.323ZM58.0469 128.323H110.816V181.094H58.0469L58.0469 128.323ZM113.455 128.323H166.225V181.094H113.455V128.323ZM168.863 128.323H221.633V181.094H168.863V128.323ZM224.271 128.323L277.043 128.323V181.094L224.271 181.094V128.323ZM279.682 128.323H332.451V181.094H279.682V128.323ZM335.09 128.323H387.859V181.094H335.09V128.323ZM390.498 128.323H443.268V181.094H390.498V128.323ZM445.906 128.323H498.676V181.094H445.906V128.323ZM501.314 128.323H554.084L554.084 181.094H501.314V128.323ZM556.723 128.323H609.492L609.492 181.094H556.723L556.723 128.323ZM612.131 128.323H664.902L664.902 181.094H612.131L612.131 128.323ZM667.541 128.323L720.311 128.323L720.311 181.094L667.541 181.094L667.541 128.323ZM722.949 128.323H775.719L775.719 181.094H722.949L722.949 128.323ZM778.357 128.323H831.127L831.127 181.094H778.357L778.357 128.323ZM2.63867 183.732H55.4082L55.4082 236.502H2.63867L2.63867 183.732ZM58.0469 183.732H110.816L110.816 236.502H58.0469L58.0469 183.732ZM113.455 183.732H166.225V236.502H113.455L113.455 183.732ZM168.863 183.732H221.633V236.502H168.863V183.732ZM224.271 183.732L277.043 183.732V236.502L224.271 236.502V183.732ZM279.682 183.732H332.451V236.502H279.682V183.732ZM335.09 183.732H387.859V236.502H335.09V183.732ZM390.498 183.732H443.268V236.502H390.498V183.732ZM445.906 183.732H498.676V236.502H445.906V183.732ZM501.314 183.732H554.084V236.502H501.314V183.732ZM556.723 183.732H609.492V236.502H556.723V183.732ZM612.131 183.732H664.902V236.502H612.131V183.732ZM667.541 183.732L720.311 183.732V236.502L667.541 236.502V183.732ZM722.949 183.732H775.719V236.502H722.949V183.732ZM778.357 183.732H831.127V236.502H778.357V183.732ZM2.63867 239.141H55.4082L55.4082 291.91H2.63867L2.63867 239.141ZM58.0469 239.141H110.816V291.91H58.0469L58.0469 239.141ZM113.455 239.141H166.225L166.225 291.91H113.455V239.141ZM168.863 239.141H221.633L221.633 291.91H168.863L168.863 239.141ZM224.271 239.141L277.043 239.141V291.91L224.271 291.91L224.271 239.141ZM279.682 239.141H332.451V291.91H279.682V239.141ZM335.09 239.141H387.859V291.91H335.09V239.141ZM390.498 239.141H443.268V291.91H390.498V239.141ZM445.906 239.141H498.676V291.91H445.906V239.141ZM501.314 239.141H554.084V291.91H501.314V239.141ZM556.723 239.141H609.492V291.91H556.723V239.141ZM612.131 239.141H664.902V291.91H612.131V239.141ZM667.541 239.141L720.311 239.141V291.91L667.541 291.91V239.141ZM722.949 239.141H775.719V291.91H722.949V239.141ZM778.357 239.141H831.127V291.91H778.357V239.141ZM2.63867 294.549H55.4082L55.4082 347.318H2.63867L2.63867 294.549ZM58.0469 294.549H110.816L110.816 347.318H58.0469L58.0469 294.549ZM113.455 294.549H166.225V347.318H113.455L113.455 294.549ZM168.863 294.549H221.633V347.318H168.863V294.549ZM224.271 294.549L277.043 294.549V347.318L224.271 347.318V294.549ZM279.682 294.549H332.451V347.318H279.682V294.549ZM335.09 294.549H387.859V347.318H335.09V294.549ZM390.498 294.549H443.268V347.318H390.498V294.549ZM445.906 294.549H498.676V347.318H445.906V294.549ZM501.314 294.549H554.084V347.318H501.314V294.549ZM556.723 294.549H609.492V347.318H556.723V294.549ZM612.131 294.549H664.902V347.318H612.131V294.549ZM667.541 294.549L720.311 294.549V347.318L667.541 347.318V294.549ZM722.949 294.549H775.719V347.318H722.949V294.549ZM778.357 294.549H831.127V347.318H778.357V294.549ZM2.63867 349.957H55.4082L55.4082 402.728H2.63867L2.63867 349.957ZM58.0469 349.957H110.816V402.728H58.0469L58.0469 349.957ZM113.455 349.957H166.225V402.728H113.455V349.957ZM168.863 349.957H221.633V402.728H168.863V349.957ZM224.271 349.957L277.043 349.957L277.043 402.728H224.271V349.957ZM279.682 349.957H332.451L332.451 402.728H279.682L279.682 349.957ZM335.09 349.957H387.859L387.859 402.728L335.09 402.728L335.09 349.957ZM390.498 349.957H443.268L443.268 402.728H390.498L390.498 349.957ZM445.906 349.957H498.676L498.676 402.728H445.906L445.906 349.957ZM501.314 349.957H554.084V402.728H501.314L501.314 349.957ZM556.723 349.957H609.492V402.728L556.723 402.728V349.957ZM612.131 349.957H664.902V402.728H612.131V349.957ZM667.541 349.957L720.311 349.957V402.728H667.541V349.957ZM722.949 349.957H775.719V402.728H722.949V349.957ZM778.357 349.957H831.127V402.728H778.357V349.957ZM2.63867 405.366H55.4082L55.4082 458.136H2.63867L2.63867 405.366ZM58.0469 405.366H110.816L110.816 458.136H58.0469L58.0469 405.366ZM113.455 405.366H166.225V458.136H113.455L113.455 405.366ZM168.863 405.366H221.633V458.136H168.863V405.366ZM224.271 405.366H277.043V458.136H224.271V405.366ZM279.682 405.366H332.451V458.136H279.682V405.366ZM335.09 405.366L387.859 405.366V458.136L335.09 458.136V405.366ZM390.498 405.366H443.268V458.136H390.498V405.366ZM445.906 405.366H498.676V458.136H445.906V405.366ZM501.314 405.366H554.084V458.136H501.314V405.366ZM556.723 405.366L609.492 405.366V458.136L556.723 458.136V405.366ZM612.131 405.366H664.902V458.136H612.131V405.366ZM667.541 405.366H720.311V458.136H667.541V405.366ZM722.949 405.366H775.719V458.136H722.949V405.366ZM778.357 405.366H831.127V458.136H778.357V405.366ZM2.63867 460.774H55.4082L55.4082 513.544H2.63867L2.63867 460.774ZM58.0469 460.774H110.816V513.544H58.0469L58.0469 460.774ZM113.455 460.774H166.225L166.225 513.544H113.455V460.774ZM168.863 460.774H221.633L221.633 513.544H168.863L168.863 460.774ZM224.271 460.774H277.043V513.544H224.271L224.271 460.774ZM279.682 460.774H332.451V513.544H279.682V460.774ZM335.09 460.774L387.859 460.774V513.544H335.09V460.774ZM390.498 460.774H443.268V513.544H390.498V460.774ZM445.906 460.774H498.676V513.544H445.906V460.774ZM501.314 460.774H554.084V513.544L501.314 513.544V460.774ZM556.723 460.774L609.492 460.774V513.544H556.723V460.774ZM612.131 460.774H664.902V513.544H612.131V460.774ZM667.541 460.774H720.311V513.544H667.541V460.774ZM722.949 460.774H775.719V513.544H722.949V460.774ZM778.357 460.774H831.127V513.544H778.357V460.774ZM2.63867 516.183H55.4082L55.4082 568.952H2.63867L2.63867 516.183ZM58.0469 516.183H110.816V568.952H58.0469L58.0469 516.183ZM113.455 516.183H166.225V568.952H113.455V516.183ZM168.863 516.183H221.633V568.952H168.863V516.183ZM224.271 516.183H277.043V568.952H224.271V516.183ZM279.682 516.183H332.451V568.952H279.682V516.183ZM335.09 516.183H387.859V568.952H335.09V516.183ZM390.498 516.183H443.268V568.952H390.498V516.183ZM445.906 516.183H498.676V568.952L445.906 568.952V516.183ZM501.314 516.183L554.084 516.183V568.952H501.314V516.183ZM556.723 516.183H609.492V568.952H556.723V516.183ZM612.131 516.183H664.902V568.952H612.131V516.183ZM667.541 516.183H720.311V568.952H667.541V516.183ZM722.949 516.183H775.719V568.952H722.949V516.183ZM778.357 516.183H831.127V568.952H778.357V516.183ZM2.63867 571.591H55.4082L55.4082 624.361H2.63867L2.63867 571.591ZM58.0469 571.591H110.816V624.361H58.0469L58.0469 571.591ZM113.455 571.591H166.225V624.361H113.455V571.591ZM168.863 571.591H221.633V624.361H168.863V571.591ZM224.271 571.591H277.043V624.361H224.271V571.591ZM279.682 571.591H332.451V624.361H279.682V571.591ZM335.09 571.591H387.859V624.361H335.09V571.591ZM390.498 571.591H443.268V624.361H390.498V571.591ZM445.906 571.591L498.676 571.591V624.361L445.906 624.361V571.591ZM501.314 571.591H554.084V624.361H501.314V571.591ZM556.723 571.591H609.492V624.361H556.723V571.591ZM612.131 571.591H664.902V624.361H612.131V571.591ZM667.541 571.591H720.311V624.361H667.541V571.591ZM722.949 571.591H775.719V624.361H722.949V571.591ZM778.357 571.591H831.127V624.361H778.357V571.591ZM110.816 -204.127V-151.357H58.0469L58.0469 -204.127H110.816ZM166.225 -204.127L166.225 -151.357H113.455V-204.127H166.225ZM221.633 -204.127L221.633 -151.357H168.863L168.863 -204.127H221.633ZM277.043 -204.127V-151.357H224.271L224.271 -204.127H277.043ZM332.451 -204.127V-151.357H279.682V-204.127H332.451ZM387.859 -204.127V-151.357H335.09V-204.127H387.859ZM443.268 -204.127V-151.357H390.498V-204.127H443.268ZM498.676 -204.127V-151.357L445.906 -151.357V-204.127L498.676 -204.127ZM554.084 -204.127V-151.357H501.314V-204.127H554.084ZM609.492 -204.127V-151.357H556.723V-204.127H609.492ZM664.902 -204.127V-151.357H612.131V-204.127H664.902ZM720.311 -204.127V-151.357H667.541V-204.127H720.311ZM775.719 -204.127V-151.357H722.949V-204.127H775.719ZM831.127 -204.127V-151.357H778.357V-204.127H831.127ZM833.766 -206.766L0 -206.766L0 627L833.766 627L833.766 -206.766Z" fill="url(#paint0_linear_1635_4142)" fill-opacity="0.6"/>
</g>
<defs>
<linearGradient id="paint0_linear_1635_4142" x1="1288.25" y1="1081.48" x2="379.284" y2="172.519" gradientUnits="userSpaceOnUse">
<stop offset="0.0302299" stop-color="#46474E"/>
<stop offset="1" stop-color="#353743" stop-opacity="0"/>
</linearGradient>
<clipPath id="clip0_1635_4142">
<rect width="612" height="627" fill="white" transform="matrix(1 0 0 -1 0 627)"/>
</clipPath>
</defs>
</svg>
