<svg width="612" height="627" viewBox="0 0 612 627" fill="none" xmlns="http://www.w3.org/2000/svg">
<g clip-path="url(#clip0_1635_4108)">
<path d="M556.592 -204.127L556.592 -151.356L609.361 -151.356L609.361 -204.127L556.592 -204.127ZM609.361 -148.718L556.592 -148.718L556.592 -95.9482L609.361 -95.9482L609.361 -148.718ZM553.953 -148.718L501.184 -148.718L501.184 -95.9482L553.953 -95.9482L553.953 -148.718ZM498.545 -148.718L445.775 -148.718L445.775 -95.9482L498.545 -95.9482L498.545 -148.718ZM443.137 -148.718L390.367 -148.718L390.367 -95.9482L443.137 -95.9482L443.137 -148.718ZM387.728 -148.718L334.957 -148.718L334.957 -95.9482L387.728 -95.9482L387.728 -148.718ZM332.318 -148.718L279.549 -148.718L279.549 -95.9482L332.318 -95.9482L332.318 -148.718ZM276.91 -148.718L224.141 -148.718L224.141 -95.9481L276.91 -95.9482L276.91 -148.718ZM221.502 -148.718L168.732 -148.718L168.732 -95.9481L221.502 -95.9481L221.502 -148.718ZM166.094 -148.718L113.324 -148.718L113.324 -95.9481L166.094 -95.9481L166.094 -148.718ZM110.685 -148.718L57.9159 -148.718L57.916 -95.9481L110.685 -95.9481L110.685 -148.718ZM55.2773 -148.718L2.50774 -148.718L2.50775 -95.9481L55.2773 -95.9481L55.2773 -148.718ZM-0.130927 -148.718L-52.9024 -148.718L-52.9024 -95.9481L-0.130923 -95.9481L-0.130927 -148.718ZM-55.5411 -148.718L-108.311 -148.718L-108.311 -95.9481L-55.5411 -95.9481L-55.5411 -148.718ZM-110.949 -148.718L-163.719 -148.718L-163.719 -95.9481L-110.949 -95.9481L-110.949 -148.718ZM-166.357 -148.718L-219.127 -148.718L-219.127 -95.9481L-166.357 -95.9481L-166.357 -148.718ZM609.361 -93.3095L556.592 -93.3095L556.592 -40.54L609.361 -40.54L609.361 -93.3095ZM553.953 -93.3095L501.184 -93.3095L501.184 -40.54L553.953 -40.54L553.953 -93.3095ZM498.545 -93.3095L445.775 -93.3095L445.775 -40.54L498.545 -40.54L498.545 -93.3095ZM443.137 -93.3095L390.367 -93.3095L390.367 -40.54L443.137 -40.54L443.137 -93.3095ZM387.728 -93.3095L334.957 -93.3095L334.957 -40.54L387.728 -40.54L387.728 -93.3095ZM332.318 -93.3095L279.549 -93.3095L279.549 -40.5399L332.318 -40.54L332.318 -93.3095ZM276.91 -93.3095L224.141 -93.3095L224.141 -40.5399L276.91 -40.5399L276.91 -93.3095ZM221.502 -93.3095L168.732 -93.3095L168.732 -40.5399L221.502 -40.5399L221.502 -93.3095ZM166.094 -93.3095L113.324 -93.3095L113.324 -40.5399L166.094 -40.5399L166.094 -93.3095ZM110.685 -93.3095L57.916 -93.3095L57.916 -40.5399L110.685 -40.5399L110.685 -93.3095ZM55.2773 -93.3095L2.50775 -93.3095L2.50775 -40.5399L55.2773 -40.5399L55.2773 -93.3095ZM-0.130922 -93.3095L-52.9024 -93.3095L-52.9024 -40.5399L-0.130918 -40.5399L-0.130922 -93.3095ZM-55.5411 -93.3095L-108.311 -93.3094L-108.311 -40.5399L-55.5411 -40.5399L-55.5411 -93.3095ZM-110.949 -93.3094L-163.719 -93.3094L-163.719 -40.5399L-110.949 -40.5399L-110.949 -93.3094ZM-166.357 -93.3094L-219.127 -93.3094L-219.127 -40.5399L-166.357 -40.5399L-166.357 -93.3094ZM609.361 -37.9013L556.592 -37.9013L556.592 14.8682L609.361 14.8682L609.361 -37.9013ZM553.953 -37.9013L501.184 -37.9013L501.184 14.8682L553.953 14.8682L553.953 -37.9013ZM498.545 -37.9013L445.775 -37.9013L445.775 14.8682L498.545 14.8682L498.545 -37.9013ZM443.137 -37.9013L390.367 -37.9013L390.367 14.8682L443.137 14.8682L443.137 -37.9013ZM387.728 -37.9013L334.957 -37.9013L334.957 14.8682L387.728 14.8682L387.728 -37.9013ZM332.318 -37.9013L279.549 -37.9013L279.549 14.8683L332.318 14.8682L332.318 -37.9013ZM276.91 -37.9013L224.141 -37.9013L224.141 14.8683L276.91 14.8683L276.91 -37.9013ZM221.502 -37.9013L168.732 -37.9013L168.732 14.8683L221.502 14.8683L221.502 -37.9013ZM166.094 -37.9013L113.324 -37.9013L113.324 14.8683L166.094 14.8683L166.094 -37.9013ZM110.685 -37.9013L57.916 -37.9013L57.916 14.8683L110.685 14.8683L110.685 -37.9013ZM55.2773 -37.9013L2.50775 -37.9013L2.50776 14.8683L55.2773 14.8683L55.2773 -37.9013ZM-0.130918 -37.9013L-52.9024 -37.9012L-52.9024 14.8683L-0.130913 14.8683L-0.130918 -37.9013ZM-55.5411 -37.9012L-108.311 -37.9012L-108.311 14.8683L-55.5411 14.8683L-55.5411 -37.9012ZM-110.949 -37.9012L-163.719 -37.9012L-163.719 14.8683L-110.949 14.8683L-110.949 -37.9012ZM-166.357 -37.9012L-219.127 -37.9012L-219.127 14.8683L-166.357 14.8683L-166.357 -37.9012ZM609.361 17.5069L556.592 17.5069L556.592 70.2774L609.361 70.2774L609.361 17.5069ZM553.953 17.5069L501.184 17.5069L501.184 70.2774L553.953 70.2774L553.953 17.5069ZM498.545 17.5069L445.775 17.5069L445.775 70.2774L498.545 70.2774L498.545 17.5069ZM443.137 17.5069L390.367 17.5069L390.367 70.2774L443.137 70.2774L443.137 17.5069ZM387.728 17.5069L334.957 17.5069L334.957 70.2774L387.728 70.2774L387.728 17.5069ZM332.318 17.5069L279.549 17.5069L279.549 70.2774L332.318 70.2774L332.318 17.5069ZM276.91 17.5069L224.141 17.5069L224.141 70.2774L276.91 70.2774L276.91 17.5069ZM221.502 17.5069L168.732 17.5069L168.732 70.2774L221.502 70.2774L221.502 17.5069ZM166.094 17.5069L113.324 17.5069L113.324 70.2774L166.094 70.2774L166.094 17.5069ZM110.685 17.5069L57.916 17.5069L57.916 70.2775L110.685 70.2774L110.685 17.5069ZM55.2773 17.5069L2.50776 17.507L2.50776 70.2775L55.2773 70.2775L55.2773 17.5069ZM-0.130913 17.507L-52.9024 17.507L-52.9024 70.2775L-0.130908 70.2775L-0.130913 17.507ZM-55.5411 17.507L-108.311 17.507L-108.311 70.2775L-55.5411 70.2775L-55.5411 17.507ZM-110.949 17.507L-163.719 17.507L-163.719 70.2775L-110.949 70.2775L-110.949 17.507ZM-166.357 17.507L-219.127 17.507L-219.127 70.2775L-166.357 70.2775L-166.357 17.507ZM609.361 72.9161L556.592 72.9161L556.592 125.686L609.361 125.686L609.361 72.9161ZM553.953 72.9161L501.184 72.9161L501.184 125.686L553.953 125.686L553.953 72.9161ZM498.545 72.9161L445.775 72.9161L445.775 125.686L498.545 125.686L498.545 72.9161ZM443.137 72.9161L390.367 72.9161L390.367 125.686L443.137 125.686L443.137 72.9161ZM387.728 72.9161L334.957 72.9161L334.957 125.686L387.728 125.686L387.728 72.9161ZM332.318 72.9161L279.549 72.9161L279.549 125.686L332.318 125.686L332.318 72.9161ZM276.91 72.9161L224.141 72.9161L224.141 125.686L276.91 125.686L276.91 72.9161ZM221.502 72.9161L168.732 72.9161L168.732 125.686L221.502 125.686L221.502 72.9161ZM166.094 72.9161L113.324 72.9161L113.324 125.686L166.094 125.686L166.094 72.9161ZM110.685 72.9161L57.916 72.9161L57.916 125.686L110.686 125.686L110.685 72.9161ZM55.2773 72.9161L2.50776 72.9161L2.50777 125.686L55.2773 125.686L55.2773 72.9161ZM-0.130908 72.9161L-52.9024 72.9161L-52.9024 125.686L-0.130903 125.686L-0.130908 72.9161ZM-55.5411 72.9161L-108.311 72.9161L-108.311 125.686L-55.5411 125.686L-55.5411 72.9161ZM-110.949 72.9161L-163.719 72.9161L-163.719 125.686L-110.949 125.686L-110.949 72.9161ZM-166.357 72.9161L-219.127 72.9161L-219.127 125.686L-166.357 125.686L-166.357 72.9161ZM609.361 128.324L556.592 128.324L556.592 181.094L609.361 181.094L609.361 128.324ZM553.953 128.324L501.184 128.324L501.184 181.094L553.953 181.094L553.953 128.324ZM498.545 128.324L445.775 128.324L445.775 181.094L498.545 181.094L498.545 128.324ZM443.137 128.324L390.367 128.324L390.367 181.094L443.137 181.094L443.137 128.324ZM387.728 128.324L334.957 128.324L334.957 181.094L387.728 181.094L387.728 128.324ZM332.318 128.324L279.549 128.324L279.549 181.094L332.318 181.094L332.318 128.324ZM276.91 128.324L224.141 128.324L224.141 181.094L276.91 181.094L276.91 128.324ZM221.502 128.324L168.732 128.324L168.732 181.094L221.502 181.094L221.502 128.324ZM166.094 128.324L113.324 128.324L113.324 181.094L166.094 181.094L166.094 128.324ZM110.686 128.324L57.916 128.324L57.916 181.094L110.686 181.094L110.686 128.324ZM55.2773 128.324L2.50777 128.324L2.50777 181.094L55.2773 181.094L55.2773 128.324ZM-0.130903 128.324L-52.9024 128.324L-52.9024 181.094L-0.130898 181.094L-0.130903 128.324ZM-55.5411 128.324L-108.311 128.324L-108.311 181.094L-55.5411 181.094L-55.5411 128.324ZM-110.949 128.324L-163.719 128.324L-163.719 181.094L-110.949 181.094L-110.949 128.324ZM-166.357 128.324L-219.127 128.324L-219.127 181.094L-166.357 181.094L-166.357 128.324ZM609.361 183.732L556.592 183.732L556.592 236.502L609.361 236.502L609.361 183.732ZM553.953 183.732L501.184 183.732L501.184 236.502L553.953 236.502L553.953 183.732ZM498.545 183.732L445.775 183.732L445.775 236.502L498.545 236.502L498.545 183.732ZM443.137 183.732L390.367 183.733L390.367 236.502L443.137 236.502L443.137 183.732ZM387.728 183.733L334.957 183.733L334.957 236.502L387.728 236.502L387.728 183.733ZM332.318 183.733L279.549 183.733L279.549 236.502L332.318 236.502L332.318 183.733ZM276.91 183.733L224.141 183.733L224.141 236.502L276.91 236.502L276.91 183.733ZM221.502 183.733L168.732 183.733L168.732 236.502L221.502 236.502L221.502 183.733ZM166.094 183.733L113.324 183.733L113.324 236.502L166.094 236.502L166.094 183.733ZM110.686 183.733L57.916 183.733L57.916 236.502L110.686 236.502L110.686 183.733ZM55.2773 183.733L2.50777 183.733L2.50778 236.502L55.2773 236.502L55.2773 183.733ZM-0.130898 183.733L-52.9024 183.733L-52.9024 236.502L-0.130894 236.502L-0.130898 183.733ZM-55.5411 183.733L-108.311 183.733L-108.311 236.502L-55.541 236.502L-55.5411 183.733ZM-110.949 183.733L-163.719 183.733L-163.719 236.502L-110.949 236.502L-110.949 183.733ZM-166.357 183.733L-219.127 183.733L-219.127 236.502L-166.357 236.502L-166.357 183.733ZM609.361 239.141L556.592 239.141L556.592 291.911L609.361 291.911L609.361 239.141ZM553.953 239.141L501.184 239.141L501.184 291.911L553.953 291.911L553.953 239.141ZM498.545 239.141L445.775 239.141L445.775 291.911L498.545 291.911L498.545 239.141ZM443.137 239.141L390.367 239.141L390.367 291.911L443.137 291.911L443.137 239.141ZM387.728 239.141L334.957 239.141L334.957 291.911L387.728 291.911L387.728 239.141ZM332.318 239.141L279.549 239.141L279.549 291.911L332.318 291.911L332.318 239.141ZM276.91 239.141L224.141 239.141L224.141 291.911L276.91 291.911L276.91 239.141ZM221.502 239.141L168.732 239.141L168.732 291.911L221.502 291.911L221.502 239.141ZM166.094 239.141L113.324 239.141L113.324 291.911L166.094 291.911L166.094 239.141ZM110.686 239.141L57.916 239.141L57.916 291.911L110.686 291.911L110.686 239.141ZM55.2773 239.141L2.50778 239.141L2.50778 291.911L55.2773 291.911L55.2773 239.141ZM-0.130893 239.141L-52.9024 239.141L-52.9024 291.911L-0.130889 291.911L-0.130893 239.141ZM-55.541 239.141L-108.311 239.141L-108.311 291.911L-55.541 291.911L-55.541 239.141ZM-110.949 239.141L-163.719 239.141L-163.719 291.911L-110.949 291.911L-110.949 239.141ZM-166.357 239.141L-219.127 239.141L-219.127 291.911L-166.357 291.911L-166.357 239.141ZM609.361 294.55L556.592 294.55L556.592 347.319L609.361 347.319L609.361 294.55ZM553.953 294.55L501.184 294.55L501.184 347.319L553.953 347.319L553.953 294.55ZM498.545 294.55L445.775 294.55L445.775 347.319L498.545 347.319L498.545 294.55ZM443.137 294.55L390.367 294.55L390.367 347.319L443.137 347.319L443.137 294.55ZM387.728 294.55L334.957 294.55L334.957 347.319L387.728 347.319L387.728 294.55ZM332.318 294.55L279.549 294.55L279.549 347.319L332.318 347.319L332.318 294.55ZM276.91 294.55L224.141 294.55L224.141 347.319L276.91 347.319L276.91 294.55ZM221.502 294.55L168.732 294.55L168.732 347.319L221.502 347.319L221.502 294.55ZM166.094 294.55L113.324 294.55L113.324 347.319L166.094 347.319L166.094 294.55ZM110.686 294.55L57.916 294.55L57.916 347.319L110.686 347.319L110.686 294.55ZM55.2773 294.55L2.50778 294.55L2.50779 347.319L55.2773 347.319L55.2773 294.55ZM-0.130888 294.55L-52.9024 294.55L-52.9024 347.319L-0.130884 347.319L-0.130888 294.55ZM-55.541 294.55L-108.311 294.55L-108.311 347.319L-55.541 347.319L-55.541 294.55ZM-110.949 294.55L-163.719 294.55L-163.719 347.319L-110.949 347.319L-110.949 294.55ZM-166.357 294.55L-219.127 294.55L-219.127 347.319L-166.357 347.319L-166.357 294.55ZM609.361 349.958L556.592 349.958L556.592 402.728L609.361 402.728L609.361 349.958ZM553.953 349.958L501.184 349.958L501.184 402.728L553.953 402.728L553.953 349.958ZM498.545 349.958L445.775 349.958L445.775 402.728L498.545 402.728L498.545 349.958ZM443.137 349.958L390.367 349.958L390.367 402.728L443.137 402.728L443.137 349.958ZM387.728 349.958L334.957 349.958L334.957 402.728L387.728 402.728L387.728 349.958ZM332.318 349.958L279.549 349.958L279.549 402.728L332.318 402.728L332.318 349.958ZM276.91 349.958L224.141 349.958L224.141 402.728L276.91 402.728L276.91 349.958ZM221.502 349.958L168.732 349.958L168.732 402.728L221.502 402.728L221.502 349.958ZM166.094 349.958L113.324 349.958L113.324 402.728L166.094 402.728L166.094 349.958ZM110.686 349.958L57.916 349.958L57.916 402.728L110.686 402.728L110.686 349.958ZM55.2773 349.958L2.50779 349.958L2.50779 402.728L55.2773 402.728L55.2773 349.958ZM-0.130884 349.958L-52.9024 349.958L-52.9024 402.728L-0.130879 402.728L-0.130884 349.958ZM-55.541 349.958L-108.311 349.958L-108.311 402.728L-55.541 402.728L-55.541 349.958ZM-110.949 349.958L-163.719 349.958L-163.719 402.728L-110.949 402.728L-110.949 349.958ZM-166.357 349.958L-219.127 349.958L-219.127 402.728L-166.357 402.728L-166.357 349.958ZM609.361 405.366L556.592 405.366L556.592 458.136L609.361 458.136L609.361 405.366ZM553.953 405.366L501.184 405.366L501.184 458.136L553.953 458.136L553.953 405.366ZM498.545 405.366L445.775 405.366L445.775 458.136L498.545 458.136L498.545 405.366ZM443.137 405.366L390.367 405.366L390.367 458.136L443.137 458.136L443.137 405.366ZM387.728 405.366L334.957 405.366L334.957 458.136L387.729 458.136L387.728 405.366ZM332.318 405.366L279.549 405.366L279.549 458.136L332.318 458.136L332.318 405.366ZM276.91 405.366L224.141 405.366L224.141 458.136L276.91 458.136L276.91 405.366ZM221.502 405.366L168.732 405.366L168.732 458.136L221.502 458.136L221.502 405.366ZM166.094 405.366L113.324 405.366L113.324 458.136L166.094 458.136L166.094 405.366ZM110.686 405.366L57.916 405.366L57.916 458.136L110.686 458.136L110.686 405.366ZM55.2773 405.366L2.50779 405.366L2.5078 458.136L55.2773 458.136L55.2773 405.366ZM-0.130879 405.366L-52.9024 405.366L-52.9024 458.136L-0.130874 458.136L-0.130879 405.366ZM-55.541 405.366L-108.311 405.366L-108.311 458.136L-55.541 458.136L-55.541 405.366ZM-110.949 405.366L-163.719 405.366L-163.719 458.136L-110.949 458.136L-110.949 405.366ZM-166.357 405.366L-219.127 405.366L-219.127 458.136L-166.357 458.136L-166.357 405.366ZM609.361 460.774L556.592 460.774L556.592 513.544L609.361 513.544L609.361 460.774ZM553.953 460.774L501.184 460.774L501.184 513.544L553.953 513.544L553.953 460.774ZM498.545 460.774L445.775 460.774L445.775 513.544L498.545 513.544L498.545 460.774ZM443.137 460.774L390.367 460.774L390.367 513.544L443.137 513.544L443.137 460.774ZM387.729 460.774L334.957 460.774L334.957 513.544L387.729 513.544L387.729 460.774ZM332.318 460.774L279.549 460.775L279.549 513.544L332.318 513.544L332.318 460.774ZM276.91 460.775L224.141 460.775L224.141 513.544L276.91 513.544L276.91 460.775ZM221.502 460.775L168.732 460.775L168.732 513.544L221.502 513.544L221.502 460.775ZM166.094 460.775L113.324 460.775L113.324 513.544L166.094 513.544L166.094 460.775ZM110.686 460.775L57.916 460.775L57.916 513.544L110.686 513.544L110.686 460.775ZM55.2773 460.775L2.5078 460.775L2.5078 513.544L55.2773 513.544L55.2773 460.775ZM-0.130874 460.775L-52.9024 460.775L-52.9024 513.544L-0.130869 513.544L-0.130874 460.775ZM-55.541 460.775L-108.311 460.775L-108.311 513.544L-55.541 513.544L-55.541 460.775ZM-110.949 460.775L-163.719 460.775L-163.719 513.544L-110.949 513.544L-110.949 460.775ZM-166.357 460.775L-219.127 460.775L-219.127 513.544L-166.357 513.544L-166.357 460.775ZM609.361 516.183L556.592 516.183L556.592 568.953L609.361 568.953L609.361 516.183ZM553.953 516.183L501.184 516.183L501.184 568.953L553.953 568.953L553.953 516.183ZM498.545 516.183L445.775 516.183L445.775 568.953L498.545 568.953L498.545 516.183ZM443.137 516.183L390.367 516.183L390.367 568.953L443.137 568.953L443.137 516.183ZM387.729 516.183L334.957 516.183L334.957 568.953L387.729 568.953L387.729 516.183ZM332.318 516.183L279.549 516.183L279.549 568.953L332.318 568.953L332.318 516.183ZM276.91 516.183L224.141 516.183L224.141 568.953L276.91 568.953L276.91 516.183ZM221.502 516.183L168.732 516.183L168.732 568.953L221.502 568.953L221.502 516.183ZM166.094 516.183L113.324 516.183L113.324 568.953L166.094 568.953L166.094 516.183ZM110.686 516.183L57.916 516.183L57.916 568.953L110.686 568.953L110.686 516.183ZM55.2773 516.183L2.5078 516.183L2.50781 568.953L55.2773 568.953L55.2773 516.183ZM-0.130869 516.183L-52.9024 516.183L-52.9023 568.953L-0.130864 568.953L-0.130869 516.183ZM-55.541 516.183L-108.311 516.183L-108.311 568.953L-55.541 568.953L-55.541 516.183ZM-110.949 516.183L-163.719 516.183L-163.719 568.953L-110.949 568.953L-110.949 516.183ZM-166.357 516.183L-219.127 516.183L-219.127 568.953L-166.357 568.953L-166.357 516.183ZM609.361 571.592L556.592 571.592L556.592 624.361L609.361 624.361L609.361 571.592ZM553.953 571.592L501.184 571.592L501.184 624.361L553.953 624.361L553.953 571.592ZM498.545 571.592L445.775 571.592L445.775 624.361L498.545 624.361L498.545 571.592ZM443.137 571.592L390.367 571.592L390.367 624.361L443.137 624.361L443.137 571.592ZM387.729 571.592L334.957 571.592L334.957 624.361L387.729 624.361L387.729 571.592ZM332.318 571.592L279.549 571.592L279.549 624.361L332.318 624.361L332.318 571.592ZM276.91 571.592L224.141 571.592L224.141 624.361L276.91 624.361L276.91 571.592ZM221.502 571.592L168.732 571.592L168.732 624.361L221.502 624.361L221.502 571.592ZM166.094 571.592L113.324 571.592L113.324 624.361L166.094 624.361L166.094 571.592ZM110.686 571.592L57.916 571.592L57.916 624.361L110.686 624.361L110.686 571.592ZM55.2773 571.592L2.50781 571.592L2.50781 624.361L55.2773 624.361L55.2773 571.592ZM-0.130864 571.592L-52.9023 571.592L-52.9023 624.361L-0.13086 624.361L-0.130864 571.592ZM-55.541 571.592L-108.311 571.592L-108.311 624.361L-55.541 624.361L-55.541 571.592ZM-110.949 571.592L-163.719 571.592L-163.719 624.361L-110.949 624.361L-110.949 571.592ZM-166.357 571.592L-219.127 571.592L-219.127 624.361L-166.357 624.361L-166.357 571.592ZM501.184 -204.127L501.184 -151.356L553.953 -151.356L553.953 -204.127L501.184 -204.127ZM445.775 -204.127L445.775 -151.356L498.545 -151.356L498.545 -204.127L445.775 -204.127ZM390.367 -204.127L390.367 -151.356L443.137 -151.356L443.137 -204.127L390.367 -204.127ZM334.957 -204.127L334.957 -151.356L387.728 -151.356L387.728 -204.127L334.957 -204.127ZM279.549 -204.127L279.549 -151.356L332.318 -151.356L332.318 -204.127L279.549 -204.127ZM224.141 -204.127L224.141 -151.356L276.91 -151.356L276.91 -204.127L224.141 -204.127ZM168.732 -204.127L168.732 -151.356L221.502 -151.356L221.502 -204.127L168.732 -204.127ZM113.324 -204.127L113.324 -151.356L166.094 -151.356L166.094 -204.127L113.324 -204.127ZM57.9159 -204.127L57.9159 -151.356L110.685 -151.356L110.685 -204.127L57.9159 -204.127ZM2.50774 -204.127L2.50774 -151.356L55.2773 -151.356L55.2773 -204.127L2.50774 -204.127ZM-52.9024 -204.127L-52.9024 -151.356L-0.130927 -151.356L-0.130932 -204.127L-52.9024 -204.127ZM-108.311 -204.127L-108.311 -151.356L-55.5411 -151.356L-55.5411 -204.127L-108.311 -204.127ZM-163.719 -204.127L-163.719 -151.356L-110.949 -151.356L-110.949 -204.127L-163.719 -204.127ZM-219.127 -204.127L-219.127 -151.356L-166.357 -151.356L-166.357 -204.127L-219.127 -204.127ZM-221.766 -206.765L612 -206.766L612 627L-221.766 627L-221.766 -206.765Z" fill="url(#paint0_linear_1635_4108)" fill-opacity="0.6"/>
</g>
<defs>
<linearGradient id="paint0_linear_1635_4108" x1="-676.247" y1="1081.48" x2="232.716" y2="172.519" gradientUnits="userSpaceOnUse">
<stop offset="0.0302299" stop-color="#46474E"/>
<stop offset="1" stop-color="#353743" stop-opacity="0"/>
</linearGradient>
<clipPath id="clip0_1635_4108">
<rect width="612" height="627" fill="white" transform="translate(612 627) rotate(180)"/>
</clipPath>
</defs>
</svg>
