<svg width="68" height="68" viewBox="0 0 68 68" fill="none" xmlns="http://www.w3.org/2000/svg">
<g filter="url(#filter0_i_1611_2235)">
<path d="M0 34C0 15.2223 15.2223 0 34 0C52.7777 0 68 15.2223 68 34C68 52.7777 52.7777 68 34 68C15.2223 68 0 52.7777 0 34Z" fill="url(#paint0_linear_1611_2235)"/>
<path d="M34 0.5C52.5015 0.5 67.5 15.4985 67.5 34C67.5 52.5015 52.5015 67.5 34 67.5C15.4985 67.5 0.5 52.5015 0.5 34C0.5 15.4985 15.4985 0.5 34 0.5Z" stroke="black"/>
<g clip-path="url(#clip0_1611_2235)">
<g filter="url(#filter1_d_1611_2235)">
<path d="M26.7773 33.4998V23.9043C26.7773 23.1353 27.6091 22.6541 28.2758 23.0374L36.6243 27.8378L44.9636 32.6329C45.6323 33.0174 45.6323 33.9822 44.9636 34.3667L36.6243 39.1618L28.2758 43.9622C27.6092 44.3455 26.7773 43.8643 26.7773 43.0953V33.4998Z" fill="url(#paint1_linear_1611_2235)"/>
</g>
</g>
</g>
<defs>
<filter id="filter0_i_1611_2235" x="0" y="0" width="68" height="68" filterUnits="userSpaceOnUse" color-interpolation-filters="sRGB">
<feFlood flood-opacity="0" result="BackgroundImageFix"/>
<feBlend mode="normal" in="SourceGraphic" in2="BackgroundImageFix" result="shape"/>
<feColorMatrix in="SourceAlpha" type="matrix" values="0 0 0 0 0 0 0 0 0 0 0 0 0 0 0 0 0 0 127 0" result="hardAlpha"/>
<feOffset/>
<feGaussianBlur stdDeviation="2.5"/>
<feComposite in2="hardAlpha" operator="arithmetic" k2="-1" k3="1"/>
<feColorMatrix type="matrix" values="0 0 0 0 0 0 0 0 0 0 0 0 0 0 0 0 0 0 1 0"/>
<feBlend mode="normal" in2="shape" result="effect1_innerShadow_1611_2235"/>
</filter>
<filter id="filter1_d_1611_2235" x="24.7773" y="21.9028" width="22.6875" height="25.1938" filterUnits="userSpaceOnUse" color-interpolation-filters="sRGB">
<feFlood flood-opacity="0" result="BackgroundImageFix"/>
<feColorMatrix in="SourceAlpha" type="matrix" values="0 0 0 0 0 0 0 0 0 0 0 0 0 0 0 0 0 0 127 0" result="hardAlpha"/>
<feOffset dy="1"/>
<feGaussianBlur stdDeviation="1"/>
<feComposite in2="hardAlpha" operator="out"/>
<feColorMatrix type="matrix" values="0 0 0 0 0.602353 0 0 0 0 0.333333 0 0 0 0 0.909804 0 0 0 0.6 0"/>
<feBlend mode="normal" in2="BackgroundImageFix" result="effect1_dropShadow_1611_2235"/>
<feBlend mode="normal" in="SourceGraphic" in2="effect1_dropShadow_1611_2235" result="shape"/>
</filter>
<linearGradient id="paint0_linear_1611_2235" x1="30.0333" y1="0" x2="30.0333" y2="64.2222" gradientUnits="userSpaceOnUse">
<stop offset="0.286057" stop-color="#1B1B1B"/>
<stop offset="1" stop-color="#484749"/>
</linearGradient>
<linearGradient id="paint1_linear_1611_2235" x1="40.0669" y1="32.8363" x2="36.3025" y2="48.5051" gradientUnits="userSpaceOnUse">
<stop stop-color="white"/>
<stop offset="1" stop-color="#878787"/>
</linearGradient>
<clipPath id="clip0_1611_2235">
<rect width="27" height="27" fill="white" transform="translate(22 20)"/>
</clipPath>
</defs>
</svg>
