<svg width="32" height="32" viewBox="0 0 32 32" fill="none" xmlns="http://www.w3.org/2000/svg">
<rect width="32" height="32" fill="#04070D"/>
<path d="M28.1234 27.6036L16.0003 22.2931L3.87728 27.6036L16.0003 4.39661L28.1234 27.6036ZM9.66634 22.5558L16.0003 16.9894L22.3333 22.5558L16.0003 10.4337L9.66634 22.5558Z" fill="url(#paint0_linear_1429_336)"/>
<path d="M16.0003 16.965L28.1232 27.6034L16.0003 22.4306L3.87743 27.6034L16.0003 16.965Z" fill="url(#paint1_linear_1429_336)"/>
<path d="M15.9998 10.4335L9.66585 22.5555L15.9998 16.9891V22.2928L3.87679 27.6024L15.9998 4.39636V10.4335Z" fill="url(#paint2_linear_1429_336)"/>
<path d="M15.9992 22.431L3.87708 27.6029L15.9992 16.9652V22.431Z" fill="#12120F"/>
<path d="M16.0003 19.4884L22.4329 22.6057L28.1232 27.6033L16.0003 22.4305L3.87743 27.6033L9.56777 22.6057L16.0003 19.4884Z" fill="url(#paint3_linear_1429_336)"/>
<path d="M16 12.4619L12.5 19.1582L10.6562 20.667L16 10.4336V12.4619Z" fill="url(#paint4_linear_1429_336)"/>
<path d="M16.0003 12.462L19.5003 19.1583L21.344 20.6671L16.0003 10.4337V12.462Z" fill="url(#paint5_linear_1429_336)"/>
<path d="M16.0132 10.4402C16.0046 10.4357 15.996 10.4312 15.9874 10.4267C15.8212 10.7414 15.655 11.0562 15.4889 11.3709C13.9939 14.2037 12.5046 17.0396 11.0212 19.8785C10.5665 20.7486 10.1124 21.6191 9.65877 22.4898L9.66715 22.4791C7.9986 23.9455 6.33212 25.4142 4.66771 26.8852C4.40104 27.1209 4.13442 27.3567 3.86786 27.5925C3.87424 27.5998 3.88062 27.6071 3.887 27.6144C4.1557 27.381 4.42434 27.1475 4.69293 26.914C6.36928 25.4566 8.04357 23.9968 9.71579 22.5346L9.72416 22.524C10.1799 21.6544 10.6352 20.7845 11.0899 19.9144C12.5733 17.0755 14.0509 14.2336 15.5228 11.3886C15.6863 11.0725 15.8498 10.7564 16.0132 10.4402Z" fill="url(#paint6_linear_1429_336)"/>
<defs>
<linearGradient id="paint0_linear_1429_336" x1="16.0003" y1="4.39661" x2="27.5049" y2="27.6036" gradientUnits="userSpaceOnUse">
<stop stop-color="white"/>
<stop offset="0.180034" stop-color="#F1F1F1"/>
<stop offset="0.375641" stop-color="#ABABAB"/>
<stop offset="0.618143" stop-color="#212121"/>
<stop offset="0.698935" stop-color="#080707"/>
</linearGradient>
<linearGradient id="paint1_linear_1429_336" x1="16.4704" y1="17.8556" x2="18.6476" y2="21.5667" gradientUnits="userSpaceOnUse">
<stop stop-color="white"/>
<stop offset="1" stop-color="#DFDFDF"/>
</linearGradient>
<linearGradient id="paint2_linear_1429_336" x1="15.9998" y1="4.39636" x2="15.9998" y2="27.6024" gradientUnits="userSpaceOnUse">
<stop stop-color="#747474"/>
<stop offset="0.273092" stop-color="#686868"/>
<stop offset="0.676932" stop-color="#454545"/>
<stop offset="1" stop-color="#4D4D4D"/>
</linearGradient>
<linearGradient id="paint3_linear_1429_336" x1="27.282" y1="27.158" x2="4.32276" y2="27.2817" gradientUnits="userSpaceOnUse">
<stop stop-color="#737373"/>
<stop offset="1" stop-color="#000409"/>
</linearGradient>
<linearGradient id="paint4_linear_1429_336" x1="13.3281" y1="10.4336" x2="13.3281" y2="20.667" gradientUnits="userSpaceOnUse">
<stop stop-color="#535353"/>
<stop offset="1"/>
</linearGradient>
<linearGradient id="paint5_linear_1429_336" x1="16.2477" y1="10.7306" x2="21.3437" y2="20.6756" gradientUnits="userSpaceOnUse">
<stop stop-color="#343434"/>
<stop offset="0.498866" stop-color="#6C6C6C"/>
<stop offset="1" stop-color="#747474"/>
</linearGradient>
<linearGradient id="paint6_linear_1429_336" x1="16.0003" y1="10.4335" x2="4.07536" y2="27.6034" gradientUnits="userSpaceOnUse">
<stop stop-color="#FEFDE6"/>
<stop offset="0.618975" stop-color="#888888"/>
<stop offset="1" stop-color="#FEFDE6"/>
</linearGradient>
</defs>
</svg>
