<svg width="48" height="48" viewBox="0 0 48 48" fill="none" xmlns="http://www.w3.org/2000/svg">
<rect width="48" height="48" fill="#04070D"/>
<path d="M42.1838 41.4044L24.0002 33.4406L5.81567 41.4044L24.0002 6.59485L42.1838 41.4044ZM14.5002 33.8341L24.0002 25.4845L33.5002 33.8341L24.0002 15.6495L14.5002 33.8341Z" fill="url(#paint0_linear_1429_338)"/>
<path d="M24.0005 25.4474L42.1848 41.4051L24.0005 33.6459L5.81615 41.4051L24.0005 25.4474Z" fill="url(#paint1_linear_1429_338)"/>
<path d="M23.9998 15.6493L14.4998 33.8339L23.9998 25.4843V33.4403L5.81519 41.4042L23.9998 6.5946V15.6493Z" fill="url(#paint2_linear_1429_338)"/>
<path d="M23.9992 33.6461L5.81563 41.4049L23.9992 25.4479V33.6461Z" fill="#12120F"/>
<path d="M24.0005 29.2325L33.6493 33.9085L42.1848 41.4049L24.0005 33.6457L5.81615 41.4049L14.3517 33.9085L24.0005 29.2325Z" fill="url(#paint3_linear_1429_338)"/>
<path d="M24 18.6934L18.75 28.7373L15.9843 31.001L24 15.6504V18.6934Z" fill="url(#paint4_linear_1429_338)"/>
<path d="M24.0004 18.6936L29.2504 28.7375L32.016 31.0012L24.0004 15.6506V18.6936Z" fill="url(#paint5_linear_1429_338)"/>
<path d="M24.0198 15.6602C24.0069 15.6535 23.994 15.6468 23.9812 15.6401C23.7318 16.1121 23.4825 16.5842 23.2333 17.0563C20.9908 21.3055 18.757 25.5593 16.5318 29.8177C15.8498 31.1229 15.1686 32.4285 14.4882 33.7346L14.5007 33.7186C11.9979 35.9182 9.49818 38.1212 7.00157 40.3278C6.60156 40.6814 6.20163 41.035 5.80179 41.3887C5.81136 41.3996 5.82093 41.4106 5.83051 41.4215C6.23355 41.0714 6.63651 40.7212 7.03939 40.371C9.55393 38.1848 12.0654 35.9951 14.5737 33.8019L14.5862 33.7859C15.2699 32.4815 15.9528 31.1767 16.6348 29.8715C18.86 25.6131 21.0764 21.3503 23.2842 17.0829C23.5295 16.6087 23.7747 16.1345 24.0198 15.6602Z" fill="url(#paint6_linear_1429_338)"/>
<defs>
<linearGradient id="paint0_linear_1429_338" x1="23.9998" y1="6.59485" x2="41.2561" y2="41.4044" gradientUnits="userSpaceOnUse">
<stop stop-color="white"/>
<stop offset="0.180034" stop-color="#F1F1F1"/>
<stop offset="0.375641" stop-color="#ABABAB"/>
<stop offset="0.618143" stop-color="#212121"/>
<stop offset="0.698935" stop-color="#080707"/>
</linearGradient>
<linearGradient id="paint1_linear_1429_338" x1="24.7056" y1="26.7834" x2="27.9713" y2="32.35" gradientUnits="userSpaceOnUse">
<stop stop-color="white"/>
<stop offset="1" stop-color="#DFDFDF"/>
</linearGradient>
<linearGradient id="paint2_linear_1429_338" x1="23.9998" y1="6.5946" x2="23.9998" y2="41.4042" gradientUnits="userSpaceOnUse">
<stop stop-color="#747474"/>
<stop offset="0.273092" stop-color="#686868"/>
<stop offset="0.676932" stop-color="#454545"/>
<stop offset="1" stop-color="#4D4D4D"/>
</linearGradient>
<linearGradient id="paint3_linear_1429_338" x1="40.923" y1="40.7369" x2="6.48414" y2="40.9225" gradientUnits="userSpaceOnUse">
<stop stop-color="#737373"/>
<stop offset="1" stop-color="#000409"/>
</linearGradient>
<linearGradient id="paint4_linear_1429_338" x1="19.9921" y1="15.6504" x2="19.9921" y2="31.0012" gradientUnits="userSpaceOnUse">
<stop stop-color="#535353"/>
<stop offset="1"/>
</linearGradient>
<linearGradient id="paint5_linear_1429_338" x1="24.3715" y1="16.0959" x2="32.0158" y2="31.0138" gradientUnits="userSpaceOnUse">
<stop stop-color="#343434"/>
<stop offset="0.498866" stop-color="#6C6C6C"/>
<stop offset="1" stop-color="#747474"/>
</linearGradient>
<linearGradient id="paint6_linear_1429_338" x1="24.0005" y1="15.6501" x2="6.11303" y2="41.4051" gradientUnits="userSpaceOnUse">
<stop stop-color="#FEFDE6"/>
<stop offset="0.618975" stop-color="#888888"/>
<stop offset="1" stop-color="#FEFDE6"/>
</linearGradient>
</defs>
</svg>
