<svg width="514" height="514" viewBox="0 0 514 514" fill="none" xmlns="http://www.w3.org/2000/svg">
<rect width="514" height="514" fill="#04070D"/>
<path d="M451.723 443.377L256.999 358.091L62.2755 443.377L256.999 70.6202L451.723 443.377ZM155.269 362.309L257.002 272.895L358.735 362.309L257.002 167.585L155.269 362.309Z" fill="url(#paint0_linear_1429_344)"/>
<path d="M257.005 272.499L451.729 443.379L257.005 360.291L62.2812 443.379L257.005 272.499Z" fill="url(#paint1_linear_1429_344)"/>
<path d="M256.995 167.59L155.264 362.308L256.995 272.896V358.091L62.2709 443.377L256.995 70.62V167.59Z" fill="url(#paint2_linear_1429_344)"/>
<path d="M256.994 360.293L62.2757 443.379L256.994 272.504V360.293Z" fill="#12120F"/>
<path d="M257.005 313.032L360.328 363.104L451.729 443.378L257.005 360.29L62.2812 443.378L153.682 363.104L257.005 313.032Z" fill="url(#paint3_linear_1429_344)"/>
<path d="M257 200.177L200.776 307.731L171.166 331.972L257 167.593V200.177Z" fill="url(#paint4_linear_1429_344)"/>
<path d="M257 200.178L313.224 307.733L342.834 331.975L257 167.593V200.178Z" fill="url(#paint5_linear_1429_344)"/>
<path d="M257.212 167.695C257.074 167.623 256.936 167.551 256.798 167.479C254.128 172.534 251.459 177.589 248.79 182.645C224.777 228.147 200.856 273.698 177.028 319.297C169.725 333.274 162.43 347.256 155.144 361.242L155.279 361.071C128.478 384.624 101.71 408.215 74.9752 431.844C70.6918 435.63 66.4092 439.416 62.1275 443.204C62.23 443.321 62.3325 443.438 62.435 443.555C66.7509 439.806 71.066 436.056 75.3802 432.306C102.307 408.896 129.2 385.448 156.06 361.962L156.194 361.791C163.515 347.823 170.828 333.851 178.131 319.874C201.959 274.274 225.693 228.626 249.335 182.929C251.962 177.852 254.587 172.774 257.212 167.695Z" fill="url(#paint6_linear_1429_344)"/>
<defs>
<linearGradient id="paint0_linear_1429_344" x1="256.999" y1="70.6202" x2="441.788" y2="443.377" gradientUnits="userSpaceOnUse">
<stop stop-color="white"/>
<stop offset="0.180034" stop-color="#F1F1F1"/>
<stop offset="0.375641" stop-color="#ABABAB"/>
<stop offset="0.618143" stop-color="#212121"/>
<stop offset="0.698935" stop-color="#080707"/>
</linearGradient>
<linearGradient id="paint1_linear_1429_344" x1="264.556" y1="286.805" x2="299.526" y2="346.415" gradientUnits="userSpaceOnUse">
<stop stop-color="white"/>
<stop offset="1" stop-color="#DFDFDF"/>
</linearGradient>
<linearGradient id="paint2_linear_1429_344" x1="256.995" y1="70.62" x2="256.995" y2="443.377" gradientUnits="userSpaceOnUse">
<stop stop-color="#747474"/>
<stop offset="0.273092" stop-color="#686868"/>
<stop offset="0.676932" stop-color="#454545"/>
<stop offset="1" stop-color="#4D4D4D"/>
</linearGradient>
<linearGradient id="paint3_linear_1429_344" x1="438.218" y1="436.225" x2="69.4344" y2="438.212" gradientUnits="userSpaceOnUse">
<stop stop-color="#737373"/>
<stop offset="1" stop-color="#000409"/>
</linearGradient>
<linearGradient id="paint4_linear_1429_344" x1="214.083" y1="167.593" x2="214.083" y2="331.972" gradientUnits="userSpaceOnUse">
<stop stop-color="#535353"/>
<stop offset="1"/>
</linearGradient>
<linearGradient id="paint5_linear_1429_344" x1="260.973" y1="172.361" x2="342.834" y2="332.109" gradientUnits="userSpaceOnUse">
<stop stop-color="#343434"/>
<stop offset="0.498866" stop-color="#6C6C6C"/>
<stop offset="1" stop-color="#747474"/>
</linearGradient>
<linearGradient id="paint6_linear_1429_344" x1="257.005" y1="167.587" x2="65.4604" y2="443.38" gradientUnits="userSpaceOnUse">
<stop stop-color="#FEFDE6"/>
<stop offset="0.618975" stop-color="#888888"/>
<stop offset="1" stop-color="#FEFDE6"/>
</linearGradient>
</defs>
</svg>
