<svg width="26" height="26" viewBox="0 0 26 26" fill="none" xmlns="http://www.w3.org/2000/svg">
<g clip-path="url(#clip0_1691_4833)">
<g clip-path="url(#clip1_1691_4833)">
<path d="M4 6.40041C4 5.82125 4.20271 5.34345 4.60811 4.96702C5.01351 4.59056 5.54055 4.40234 6.18919 4.40234C6.82626 4.40234 7.34169 4.58766 7.73552 4.95833C8.14092 5.34057 8.34363 5.83863 8.34363 6.45254C8.34363 7.00852 8.14672 7.47183 7.7529 7.8425C7.3475 8.22474 6.81467 8.41586 6.15444 8.41586H6.13707C5.49999 8.41586 4.98456 8.22474 4.59073 7.8425C4.19691 7.46026 4 6.97956 4 6.40041ZM4.22587 21.6031V9.99694H8.08301V21.6031H4.22587ZM10.2201 21.6031H14.0772V15.1224C14.0772 14.717 14.1236 14.4043 14.2162 14.1842C14.3784 13.7904 14.6245 13.4574 14.9546 13.1852C15.2847 12.913 15.6988 12.7769 16.1969 12.7769C17.4942 12.7769 18.1429 13.6514 18.1429 15.4004V21.6031H22V14.9487C22 13.2344 21.5946 11.9342 20.7838 11.0481C19.973 10.162 18.9015 9.71895 17.5695 9.71895C16.0753 9.71895 14.9112 10.3618 14.0772 11.6475V11.6823H14.0598L14.0772 11.6475V9.99694H10.2201C10.2432 10.3676 10.2548 11.5201 10.2548 13.4545C10.2548 15.3888 10.2432 18.105 10.2201 21.6031Z" fill="white"/>
</g>
</g>
<defs>
<clipPath id="clip0_1691_4833">
<rect width="26" height="26" fill="white"/>
</clipPath>
<clipPath id="clip1_1691_4833">
<rect width="18" height="18" fill="white" transform="translate(4 4)"/>
</clipPath>
</defs>
</svg>
